<svg xmlns="http://www.w3.org/2000/svg" viewBox="0 0 25 25"><circle cx="12.5" cy="12.5" r="12.5" fill="#fff"/><path d="M12.5 0H12s-.2.8 0 1c.2.2.8-.2 1 0 .2.2-.2.8 0 1s.8.2 1 0 0-.7 0-1c0-.3.5-.8 0-.9L12.5 0zm.5 2c-.2-.2-.8-.2-1 0s-.2.8 0 1 .8.2 1 0 .2-.8 0-1zm-1 1c-.2-.2-.8-.2-1 0s0 .7 0 1 .2.8 0 1-.8.2-1 0c-.2-.2.2-.8 0-1-.2-.2-.8-.2-1 0s0 .7 0 1-.2.8 0 1 .8-.2 1 0c.2.2.2.8 0 1-.2.2-.8.2-1 0s.2-.8 0-1-.8-.2-1 0 0 .7 0 1-.2.8 0 1 .8-.2 1 0 .2.8 0 1-.8.2-1 0 .2-.8 0-1c-.7-.7-2.3-.7-3 0-.2.2-.2.8 0 1 .5.5 1.5-.5 2 0 .2.2.2.8 0 1-.2.2-.8-.2-1 0-.2.2-.2.8 0 1 .5.5 1.5-.5 2 0 .2.2 0 .7 0 1s.2.8 0 1-.8-.2-1 0-.2.8 0 1 .8-.2 1 0-.2.8 0 1c.5.5 1.5-.5 2 0 .2.2-.2.8 0 1 .5.5 1.5.5 2 0 .2-.2 0-.7 0-1s-.2-.8 0-1 .8.2 1 0 0-.7 0-1 .2-.8 0-1-.8-.2-1 0 .2.8 0 1-.8-.2-1 0 .2.8 0 1c-.5.5-1.5.5-2 0-.2-.2-.2-.8 0-1s.8.2 1 0c.2-.2.2-.8 0-1-.2-.2-.8.2-1 0s0-.7 0-1-.2-.8 0-1c.2-.2.8-.2 1 0 .2.2-.2.8 0 1 .2.2.8-.2 1 0s-.2.8 0 1 .8.2 1 0 0-.7 0-1 .2-.8 0-1c-.2-.2-.8.2-1 0-.2-.2.2-.8 0-1s-.8.2-1 0c-.2-.2-.2-.8 0-1 .5-.5 1.5.5 2 0 .2-.2.2-.8 0-1s-.8.2-1 0-.2-.8 0-1 .8-.2 1 0-.2.8 0 1 .8.2 1 0-.2-.8 0-1 .8.2 1 0 .2-.8 0-1-.8.2-1 0 .2-.8 0-1-.8.2-1 0 .2-.8 0-1zm2 2c.7.7 2.3.7 3 0 .2-.2 0-.7 0-1V2c0-.3.2-.8 0-1-.2-.2-.8-.2-1 0-.2.2.2.8 0 1s-.8-.2-1 0 .2.8 0 1-.8-.2-1 0 0 .7 0 1-.2.8 0 1zm2-4V.5c0-.3-1-.6-1-.2 0 0-.2.5 0 .7.2.2.8.2 1 0zm-2 5c-.2.2-.2.8 0 1s.8.2 1 0 .2-.8 0-1-.8-.2-1 0zm-1 8c-.2.2-.2.8 0 1s.8.2 1 0 .2-.8 0-1-.8-.2-1 0zm1 0c.2.2.8.2 1 0s-.2-.8 0-1 .8.2 1 0-.2-.8 0-1 .8-.2 1 0-.2.8 0 1 .8-.2 1 0-.2.8 0 1 .8-.2 1 0-.2.8 0 1 .8.2 1 0-.2-.8 0-1 .8-.2 1 0-.2.8 0 1c.5.5 1.5-.5 2 0 .2.2-.2.8 0 1s.8.2 1 0 0-.7 0-1-.2-.8 0-1c.2-.2.9 0 .9 0 .3 0 0-.7 0-1 0-.3-1.4-.5-1.9 0-.2.2.2.8 0 1s-.8.2-1 0-.2-.8 0-1 .8.2 1 0 0-.7 0-1 .2-.8 0-1-.8.2-1 0 .2-.8 0-1c-.2-.2-.8-.2-1 0-.2.2.2.8 0 1s-.8-.2-1 0 0 .7 0 1 .2.8 0 1-.8.2-1 0 0-.7 0-1v-1c0-.3-.2-.8 0-1 .2-.2.8.2 1 0 .2-.2.2-.8 0-1s-.8.2-1 0 .2-.8 0-1-.8-.2-1 0 .2.8 0 1c-.5.5-1.5-.5-2 0-.2.2-.2.8 0 1 .5.5 1.5-.5 2 0 .2.2.2.8 0 1-.7.7-2.3-.7-3 0-.2.2.2.8 0 1s-.8-.2-1 0 0 .7 0 1-.2.8 0 1zm9 2c-.2-.2-.8-.2-1 0s-.2.8 0 1 .8.2 1 0 .2-.8 0-1zm0 1c-.2.2 0 .7 0 1s-.2.8 0 1c0 0-.2.5.2 0l.8-1.6c.2-.6 0-.3 0-.4-.2-.2-.8-.2-1 0zm-1 0c-.2-.2-.8.2-1 0s.2-.8 0-1c-.5-.5-1.5.5-2 0-.2-.2.2-.8 0-1s-.8-.2-1 0 .2.8 0 1-.8.2-1 0 .2-.8 0-1-.8-.2-1 0 .2.8 0 1-.8.2-1 0 .2-.8 0-1-.8-.2-1 0 0 .7 0 1v1c0 .3.2.8 0 1s-.8-.2-1 0 0 .7 0 1v1c0 .3-.2.8 0 1 .5.5 1.5.5 2 0 .2-.2-.2-.8 0-1s.8-.2 1 0-.2.8 0 1 .8-.2 1 0 0 .7 0 1-.2.8 0 1 .8-.2 1 0c.2.2 0 .7 0 .7 0 .4.7-.3 1-.5.3-.2 0-.1 0-.2 0-.3-.2-.8 0-1s.8-.2 1 0v.5c0 .9 1.4-1.2 2-1.9.6-.7 0-.4 0-.6v-2c0-.3.2-.8 0-1zm-5-2c.2.2.8.2 1 0s.2-.8 0-1-.8-.2-1 0-.2.8 0 1zm0-1c.2-.2.2-.8 0-1s-.8-.2-1 0-.2.8 0 1 .8.2 1 0zm-5 2c-.2.2-.2.8 0 1s.8.2 1 0 .2-.8 0-1-.8-.2-1 0zm-2 0c-.2-.2-.8-.2-1 0s-.2.8 0 1 .8.2 1 0c.2-.2.2-.8 0-1zm0 1c-.2.2-.2.8 0 1 .2.2.8.2 1 0s.2-.8 0-1-.8-.2-1 0zm0 1c-.2-.2-.8.2-1 0s.2-.8 0-1-.8-.2-1 0 0 .7 0 1v1c0 .3-.2.8 0 1s.8.2 1 0-.2-.8 0-1 .8.2 1 0c.2-.2.2-.8 0-1zm0 1c-.2.2-.2.8 0 1 .5.5 1.5.5 2 0 .2-.2.2-.8 0-1-.5-.5-1.5-.5-2 0zm0 1c-.2-.2-.8-.2-1 0s.2.8 0 1-.8-.2-1 0 0 .7 0 1-.2.8 0 1 .8.2 1 0-.2-.8 0-1 .8.2 1 0c.2-.2 0-.7 0-1s.2-.8 0-1zm-1 3c-.2.2-.2.8 0 1s.8.2 1 0c.2-.2.2-.8 0-1-.2-.2-.8-.2-1 0zm1 1c-.2.2 0 .7 0 .7 0 .7 1.3.3 2 .3s-.2-.8 0-1c.7-.7 2.3.7 3 0 .2-.2-.2-.8 0-1s.8.2 1 0 .2-.8 0-1c-.5-.5-1.5-.5-2 0-.2.2.2.8 0 1-.7.7-2.3-.7-3 0-.2.2.2.8 0 1s-.8-.2-1 0zm-1 0c-.2-.2-.8-.2-1 0 0 0-.3 0 0 .1.3.2 1 .7 1 .4V24zm-1-7c.2-.2.2-.8 0-1-.7-.7-2.3.7-3 0-.2-.2.2-.8 0-1s-.8.2-1 0 0-.7 0-1-.2-.8 0-1 .8.2 1 0 .2-.8 0-1-.8.2-1 0 .2-.8 0-1-.8-.2-1 0 0 .7 0 1v1c0 .3.2.8 0 1s-.8.2-1 0 0-.7 0-1 .2-.8 0-1-.8-.2-1 0c-.2.2 0 .7 0 1v1c0 .3-.2.8 0 1 .2.2.8-.2 1 0s0 .7 0 1-.2.8 0 1 .8.2 1 0-.2-.8 0-1 .8-.2 1 0-.2.8 0 1c1 1 3 1 4 0zm-7-2c-.2-.2-.7 0-.7 0-.4 0-.1 1 .2 1H1c.2-.2.2-.8 0-1zm2-4c.2-.2 0-.7 0-1 0-.3-.2-.8 0-1s.8.2 1 0 .2-.8 0-1c-.5-.5-1.5-.5-2 0-.2.2.2.8 0 1s-.8.2-1 0c-.2-.2.2-.8 0-1H.9C.2 8 .4 9.3.3 10c-.2.7.5-.2.7 0 .2.2-.2.8 0 1 .5.5 1.5.5 2 0zm1 0c.2.2.8.2 1 0s.2-.8 0-1c-.2-.2-.8-.2-1 0-.2.2-.2.8 0 1zm1 0c-.2.2-.2.8 0 1s.8.2 1 0 .2-.8 0-1-.8-.2-1 0zm1 1c-.2.2-.2.8 0 1s.8.2 1 0 .2-.8 0-1-.8-.2-1 0zm0 1c-.2-.2-.8-.2-1 0s-.2.8 0 1 .8.2 1 0 .2-.8 0-1zm0 1c-.2.2-.2.8 0 1s.8.2 1 0 .2-.8 0-1-.8-.2-1 0zM9 4c.2-.2.2-.8 0-1s-.8-.2-1 0-.2.8 0 1 .8.2 1 0zm0-1c.2.2.8.2 1 0 .2-.2.2-.8 0-1-.2-.2-.8-.2-1 0s-.2.8 0 1zm0-1c.2-.2 0-.7 0-1V.5c0-.3-.7.2-1 .3C7.7 1 8 1 8 1c0 .3-.2.8 0 1s.8.2 1 0zm1 0c.2.2.8.2 1 0s.2-.8 0-1c-.2-.2-.8-.2-1 0-.2.2-.2.8 0 1zm-3-.7c0-.4-1 .2-1 .5V5c0 .3.2.8 0 1-1 1-4.2 0-4.2 0-.3 0-.9 1-.5 1 0 0 4.4 1.3 5.7 0 .2-.2 0-.7 0-1V1.3zm11 0c-.3-.2 0 .5 0 .7v4c0 .3-.2.8 0 1 1.3 1.3 5.7 0 5.7 0 .4 0-.2-1-.5-1 0 0-3.2 1-4.2 0-.2-.2 0-.7 0-1V1.8c0-.3-.7-.3-1-.5zM5 2.5C5 1.3 3.2 4.1 2.5 5c-.7 1 2 .6 2.5 0 .2-.2 0-.7 0-1V2.5zm15 0V4c0 .3-.2.8 0 1 .6.6 3.2 1 2.5 0-.7-1-2.5-3.7-2.5-2.5zM16 6c-.2.2 0 .7 0 1s-.2.8 0 1 .8.2 1 0 0-.7 0-1 .2-.8 0-1-.8-.2-1 0zm-3 2c-.2.2 0 .7 0 1v1c0 .3-.2.8 0 1s.8.2 1 0-.2-.8 0-1c.2-.2.8.2 1 0 .2-.2.2-.8 0-1s-.8.2-1 0 .2-.8 0-1-.8-.2-1 0zm8 0c-.2.2-.2.8 0 1s.8.2 1 0 .2-.8 0-1-.8-.2-1 0zm2 0c-.2.2-.2.8 0 1 .4.4 1.6.3 1.5 0-.1-.3 0-1-.3-1 0 0-1-.3-1.2 0zm-6 9c.7-.7 2.3-.7 3 0 .2.2 0 .7 0 1v1c0 .3.2.8 0 1-.7.7-2.3.7-3 0-.2-.2 0-.7 0-1v-1c0-.3-.2-.8 0-1zM1.3 18c-.4 0 .2 1 .5 1 0 0 3.2-1 4.2 0 .2.2 0 .7 0 1v3s-.3 0 0 .2l1 .5c.3.2 0-.5 0-.7v-4c0-.3.2-.8 0-1-1.3-1.3-5.7 0-5.7 0zM18 18c-.2.2-.2.8 0 1s.8.2 1 0 .2-.8 0-1-.8-.2-1 0zM2.5 20c.7 1 2.5 3.7 2.5 2.5V21c0-.3.2-.8 0-1-.6-.6-3.2-1-2.5 0z"/></svg>